<svg id="Layer_1" data-name="Layer 1" xmlns="http://www.w3.org/2000/svg" viewBox="0 0 193.33 63"><defs><style>.cls-1{fill:#ff86a8;}.cls-2{fill:#fff;}</style></defs><path class="cls-1" d="M48.73,7.85,23.19,2,2.91,18.42V44.77L23.19,61.21l25.38-5.87L60,31.6Zm-1.45,1.8,3.29,6.93L30.7,5.85ZM23.92,4.55l15,8.13L7.12,40.16ZM5,19.41,20.56,6.79,5,39.79ZM23.71,59,8.09,46.29l35.14,8.15ZM6.2,43.71,21.64,30.38,45,52.72Zm17-14.7L40.13,14.42l6,36.3ZM47.91,49,42.25,14.45l9.49,5.13Zm5.51-26.4,4.27,9-8,17.12Z"/><path class="cls-2" d="M90,35.68,85.57,24,81.15,35.68H78l-7-18.43h4.35l4.42,11.86,4.46-11.86H87l4.5,11.86,4.42-11.86h4.34l-7,18.43Z"/><path class="cls-2" d="M106.63,10.85a2.53,2.53,0,0,1-2.55,2.52,2.52,2.52,0,1,1,2.55-2.52Zm-4.57,24.83V17.25h4V35.68Z"/><path class="cls-2" d="M127.2,26.49c0,5.89-3.73,9.55-8.87,9.55a7,7,0,0,1-5.86-2.55v9.2h-4V17.25h3.81v2.59c1-1.69,3.19-2.91,6.07-2.91C123.47,16.93,127.2,20.63,127.2,26.49ZM112.47,26v1c0,3.63,2.19,5.6,5.21,5.6s5.43-2.19,5.43-6.1-2.3-6.08-5.43-6.08S112.47,22.35,112.47,26Z"/><path class="cls-2" d="M143.74,22.78l-4,.22c-.14-1.54-1.11-2.62-3.16-2.62s-2.88.79-2.88,2.05c0,1.58,1.59,1.72,4,2.29,3.81,1,6.36,2.12,6.36,5.43,0,3.7-2.73,5.89-7.22,5.89s-7.12-2.22-7.55-5.89l4-.25c.21,1.69,1.4,2.66,3.59,2.66,1.83,0,3.12-.72,3.12-2.09s-1-1.86-4-2.58c-3.74-.9-6.4-1.69-6.4-5.39,0-3.31,2.55-5.57,7-5.57S143.38,19.51,143.74,22.78Z"/><path class="cls-2" d="M157.79,32.16v3.6a16.2,16.2,0,0,1-2.7.21c-3.63,0-6.14-1.8-6.11-6l0-9.27h-3.41V17.25H149l0-6.25h4.06l0,6.25h4.67v3.49H153l0,8.44c0,2.41,1.4,3.16,3.05,3.16A8.72,8.72,0,0,0,157.79,32.16Z"/><path class="cls-2" d="M164,28A4.66,4.66,0,0,0,169,32.56c2.34,0,3.88-1,4.39-2.63l4.06.22c-.72,3.27-4.06,5.89-8.34,5.89-5.42,0-9.3-3.59-9.3-9.55s3.84-9.56,9.19-9.56,8.63,3.48,8.63,9.09v2Zm0-3.16h9.45c-.11-2.66-1.62-4.45-4.6-4.45A4.51,4.51,0,0,0,164.08,24.83Z"/><path class="cls-2" d="M189.67,21c-3.16,0-5.14,2-5.14,4.71v10h-4V17.25h3.92v2.59c.68-1.44,2.3-2.8,5.24-2.8Z"/><path class="cls-2" d="M87,49.34H84.15v1.43h2.49V52H84.15v1.59H87v1.21H82.77V48.13H87Z"/><path class="cls-2" d="M92.48,51.39l2,3.36H92.94l-1.47-2.46L90,54.75H88.4l2-3.36-1.93-3.26h1.57l1.38,2.35,1.36-2.35H94.4Z"/><path class="cls-2" d="M95.91,48.13h2.86a2.12,2.12,0,0,1,1.55.57,2.37,2.37,0,0,1,0,3.13,2.12,2.12,0,0,1-1.55.57H97.28v2.35H95.91Zm1.36,1.21v1.85H98.6a.93.93,0,0,0,0-1.85Z"/><path class="cls-2" d="M106.53,49.34h-2.88v1.43h2.5V52h-2.5v1.59h2.89v1.21h-4.26V48.13h4.25Z"/><path class="cls-2" d="M111.67,54.75l-1.29-2.38h-1.11v2.38H107.9V48.13h2.83a2.12,2.12,0,0,1,1.55.57,2,2,0,0,1,.58,1.56,2,2,0,0,1-1.06,1.89l1.41,2.6Zm-2.41-3.59h1.3a.91.91,0,1,0,0-1.82h-1.3Z"/><path class="cls-2" d="M120.38,49.34h-2.22v5.41H116.8V49.34h-2.22V48.13h5.8Z"/><path class="cls-2" d="M126.09,48.58a1.86,1.86,0,0,1,.69,1.49l-1.39.07a.92.92,0,0,0-1-.92c-.61,0-1,.31-1,.8a.56.56,0,0,0,.27.52,4.18,4.18,0,0,0,1,.34,4.67,4.67,0,0,1,1.69.71,1.44,1.44,0,0,1,.56,1.23,1.79,1.79,0,0,1-.69,1.52,2.84,2.84,0,0,1-1.75.51,3,3,0,0,1-1.91-.56,1.87,1.87,0,0,1-.74-1.56l1.39-.07a1.13,1.13,0,0,0,1.26,1c.7,0,1-.26,1-.77s-.38-.66-1.37-.91c-.35-.09-.63-.17-.85-.25a3.54,3.54,0,0,1-.68-.33,1.47,1.47,0,0,1-.65-1.35,1.89,1.89,0,0,1,.61-1.44,2.42,2.42,0,0,1,1.74-.58A2.72,2.72,0,0,1,126.09,48.58Z"/><path class="cls-2" d="M135.05,54.85,134,54a2.63,2.63,0,0,1-2,.86,2.51,2.51,0,0,1-1.75-.54,1.75,1.75,0,0,1-.6-1.37,2.1,2.1,0,0,1,1-1.81,1.85,1.85,0,0,1-.53-1.23A1.81,1.81,0,0,1,132.23,48a1.91,1.91,0,0,1,2.05,1.68l-1.32.1a.67.67,0,0,0-.73-.65.63.63,0,0,0-.69.7,1.21,1.21,0,0,0,.49.84l.33.27,1.4,1.17a8.9,8.9,0,0,0,.33-1l1.2.31a8.58,8.58,0,0,1-.57,1.55l1.09.91Zm-2-1.64-1.6-1.34a1.16,1.16,0,0,0-.45.94.85.85,0,0,0,1,.87A1.49,1.49,0,0,0,133.1,53.21Z"/><path class="cls-2" d="M142.81,49.34h-2.88v1.43h2.34V52h-2.34v2.78h-1.37V48.13h4.25Z"/><path class="cls-2" d="M148,54.75l-1.3-2.38h-1.1v2.38h-1.37V48.13H147a2.12,2.12,0,0,1,1.55.57,2,2,0,0,1,.58,1.56,2,2,0,0,1-1.06,1.89l1.41,2.6Zm-2.41-3.59h1.3a.91.91,0,1,0,0-1.82h-1.3Z"/><path class="cls-2" d="M152.23,54.75h-1.37V48.13h1.37Z"/><path class="cls-2" d="M157.85,49.34H155v1.43h2.5V52H155v1.59h2.89v1.21H153.6V48.13h4.25Z"/><path class="cls-2" d="M164.67,54.75h-1.16l-2.91-4.09v4.09h-1.37V48.13h1.16l2.91,4.11V48.13h1.37Z"/><path class="cls-2" d="M166,48.13h2.72a3.41,3.41,0,0,1,2.37,5.74,3.29,3.29,0,0,1-2.38.88H166Zm1.36,1.17v4.29h1.37c1.18,0,1.92-.76,1.92-2.15s-.72-2.14-1.92-2.14Z"/><path class="cls-2" d="M177,48.58a1.9,1.9,0,0,1,.7,1.49l-1.4.07a.92.92,0,0,0-1-.92c-.61,0-1,.31-1,.8a.56.56,0,0,0,.27.52,4.35,4.35,0,0,0,1,.34,4.67,4.67,0,0,1,1.69.71,1.41,1.41,0,0,1,.56,1.23,1.79,1.79,0,0,1-.69,1.52,2.83,2.83,0,0,1-1.74.51,3,3,0,0,1-1.92-.56,1.9,1.9,0,0,1-.74-1.56l1.39-.07a1.14,1.14,0,0,0,1.27,1c.7,0,1-.26,1-.77s-.38-.66-1.36-.91c-.36-.09-.64-.17-.86-.25a3.77,3.77,0,0,1-.67-.33,1.48,1.48,0,0,1-.66-1.35,1.93,1.93,0,0,1,.61-1.44,2.43,2.43,0,0,1,1.75-.58A2.69,2.69,0,0,1,177,48.58Z"/></svg>